HIERARCHY
ROOT Hips
{
   OFFSET 0.00000 0.00000 0.00000
   CHANNELS 6 Xposition Yposition Zposition Zrotation Xrotation Yrotation
   JOINT RightUpLeg
   {
      OFFSET -8.945800 -8.667070 0.101652
      CHANNELS 3 Zrotation Xrotation Yrotation
      JOINT RightLeg
      {
         OFFSET 0.000000 -44.422697 1.372700
         CHANNELS 3 Zrotation Xrotation Yrotation
         JOINT RightFoot
         {
            OFFSET 0.253549 -42.092399 -1.460590
            CHANNELS 3 Zrotation Xrotation Yrotation
            JOINT RightToes
            {
               OFFSET 0.040000 -4.415090 8.499099
               CHANNELS 3 Zrotation Xrotation Yrotation
               End Site
               {
                  OFFSET -0.080000 -0.137448 9.779790
               }
            }
         }
      }
   }
   JOINT Spine
   {
      OFFSET 0.000000 11.890501 0.000000
      CHANNELS 3 Zrotation Xrotation Yrotation
      JOINT Spine1
      {
         OFFSET 0.000000 25.657401 0.127663
         CHANNELS 3 Zrotation Xrotation Yrotation
         JOINT HEad
         {
            OFFSET 0.000000 8.734161 0.011341
            CHANNELS 3 Zrotation Xrotation Yrotation
            End Site
            {
               OFFSET -0.290000 12.774200 2.513950
            }
         }
         JOINT LeftShoulder1
         {
            OFFSET 8.990000 -0.362252 -0.220000
            CHANNELS 3 Zrotation Xrotation Yrotation
            JOINT LeftArm
            {
               OFFSET 10.282700 -0.003380 0.322123
               CHANNELS 3 Zrotation Xrotation Yrotation
               JOINT LeftForeArm
               {
                  OFFSET 32.766900 0.099144 -1.424340
                  CHANNELS 3 Zrotation Xrotation Yrotation
                  JOINT LeftHand
                  {
                     OFFSET 27.564301 0.085362 1.022160
                     CHANNELS 3 Zrotation Xrotation Yrotation
                     End Site
                     {
                        OFFSET 16.744301 -0.600000 1.502910
                     }
                  }
               }
            }
         }
         JOINT RightShoulder
         {
            OFFSET -8.990000 -0.362252 -0.220000
            CHANNELS 3 Zrotation Xrotation Yrotation
            JOINT RightArm
            {
               OFFSET -10.282700 -0.003380 0.322123
               CHANNELS 3 Zrotation Xrotation Yrotation
               JOINT RightForeArm
               {
                  OFFSET -32.897098 0.099144 -1.424340
                  CHANNELS 3 Zrotation Xrotation Yrotation
                  JOINT RightHand
                  {
                     OFFSET -27.492101 0.085362 1.022160
                     CHANNELS 3 Zrotation Xrotation Yrotation
                     End Site
                     {
                        OFFSET -16.631201 -0.600000 1.502910
                     }
                  }
               }
            }
         }
      }
   }
   JOINT LeftUpLeg
   {
      OFFSET 8.945800 -8.667070 0.101652
      CHANNELS 3 Zrotation Xrotation Yrotation
      JOINT LeftLeg
      {
         OFFSET 0.000000 -44.422697 1.372700
         CHANNELS 3 Zrotation Xrotation Yrotation
         JOINT LeftFoot
         {
            OFFSET -0.253549 -42.092399 -1.460590
            CHANNELS 3 Zrotation Xrotation Yrotation
            JOINT LeftToes
            {
               OFFSET -0.040000 -4.415090 8.499099
               CHANNELS 3 Zrotation Xrotation Yrotation
               End Site
               {
                  OFFSET 0.080000 -0.047448 9.779790
               }
            }
         }
      }
   }
}
MOTION
Frames: 10
Frame Time: 0.016667
9.19569 105.555 -61.055 45.2923 46.4776 166.434 -71.9154 -13.2603 -23.931 103.237 6.43415 -94.69 -29.7857 11.652 49.5764 0.0462048 0.000533403 0.662642 22.5368 54.995 -15.2182 -0.485601 -0.181549 -0.152001 25.4215 20.3236 -21.8009 -4.37326e-015 7.95139e-016 -3.18055e-015 -94.0978 -19.3121 -46.0228 -68.4605 59.6188 -61.4057 12.7889 13.2518 -11.8899 43.1057 1.16268 -6.8915 99.9196 -31.9948 114.543 20.1574 26.9611 46.8273 16.5942 31.0225 3.24656 40.5693 22.9904 -34.2483 -27.0553 35.9933 90.5867 -10.4922 0.122246 2.10071 -1.80357e-010 1.55988e-007 -4.8394e-009 
8.79248 105.11 -60.2353 43.5891 46.4481 168.105 -70.5974 -14.6724 -27.5201 106.827 15.4076 -77.629 -23.7222 20.4155 28.5088 0.0462048 0.000533403 0.662642 22.2935 54.1819 -15.444 -0.46642 -0.167952 -0.147976 27.304 22.5233 -22.6743 -5.66536e-015 7.95139e-016 -1.59028e-015 -94.2937 -18.4194 -46.8738 -67.6152 58.8741 -61.0432 12.6776 13.8762 -11.995 42.2425 1.45692 -7.13573 100.973 -32.5004 114.501 21.555 28.3912 47.4486 16.603 30.9824 2.94152 39.932 20.8855 -34.8848 -30.9475 36.6746 94.0878 -11.6202 -0.836114 0.635166 -1.80353e-010 1.55988e-007 -4.8394e-009 
8.38406 104.743 -59.4126 41.9285 46.2785 169.886 -67.8465 -17.2257 -32.0568 110.536 25.3528 -77.1215 -20.1389 20.5097 19.6071 0.0462048 0.000533403 0.662642 21.7392 52.7323 -15.3831 -0.445804 -0.153937 -0.144111 29.1421 24.6719 -23.9009 -8.94531e-016 -7.95139e-016 -1.59028e-015 -94.1918 -17.4835 -47.4121 -66.995 57.994 -60.4192 12.582 14.5301 -11.9817 41.5996 2.06597 -7.81731 101.975 -32.9906 114.543 23.0671 29.967 47.9507 16.5343 30.8717 2.66896 39.3928 18.9559 -35.4695 -34.3205 36.8194 97.0687 -12.599 -1.7429 -0.753155 -1.80355e-010 1.55988e-007 -4.83939e-009 
7.90788 104.299 -58.4757 39.1204 44.1229 172.73 -63.5995 -20.9289 -38.4507 112.849 37.0032 -80.6274 -15.8134 17.8169 13.664 0.0462048 0.000533403 0.662642 19.7666 48.9148 -14.3841 -0.424583 -0.139786 -0.140269 30.8648 26.6913 -25.3847 -2.98177e-016 -7.95139e-016 -7.95139e-016 -93.9194 -16.7054 -47.6981 -66.8563 57.0813 -59.3445 12.6041 15.2349 -11.9413 41.1421 2.96913 -8.85567 102.951 -33.4006 114.649 24.6715 31.6656 48.3259 16.3083 30.6424 2.33484 37.8868 15.4222 -34.7698 -37.1754 36.6122 99.5071 -13.3472 -2.62013 -2.02298 -1.80352e-010 1.55988e-007 -4.8394e-009 
7.45313 103.699 -57.6153 36.7292 42.0501 175.086 -57.7362 -25.1197 -44.7739 117.837 49.0215 -89.4301 -12.9468 14.0157 9.24185 0.0462048 0.000533403 0.662642 18.0896 44.986 -13.5528 -0.402957 -0.125721 -0.136302 32.3635 28.5389 -27.0099 -5.01931e-015 3.97569e-016 -0 -93.6058 -16.2848 -47.7941 -67.404 56.2334 -57.6646 12.7587 15.9766 -11.9189 40.7894 4.14322 -10.1584 103.94 -33.6755 114.79 26.3448 33.4646 48.5737 15.9109 30.3302 2.07573 36.5374 12.2225 -34.0988 -39.696 36.2096 101.49 -14.052 -3.49303 -3.20037 -1.80353e-010 1.55988e-007 -4.8394e-009 
6.98789 103.054 -56.7252 34.5898 39.9154 177.096 -50.6585 -29.5026 -50.7176 127.478 60.175 -104.652 -10.5902 9.8111 5.83449 0.0462048 0.000533403 0.662642 16.9939 41.2552 -13.2439 -0.367038 -0.105493 -0.13193 33.4337 30.1202 -28.4091 6.4605e-016 -3.97569e-016 1.59028e-015 -93.6 -16.1734 -48.1603 -68.2051 55.3924 -55.8373 12.9712 16.7292 -11.9112 40.2115 5.25339 -11.3461 104.929 -33.8264 114.853 28.0897 35.3026 48.8036 15.4637 29.9877 1.80634 35.1247 9.12431 -33.4205 -41.8108 35.6671 103.184 -14.6495 -4.24401 -4.20745 -1.80354e-010 1.55988e-007 -4.8394e-009 
6.50946 102.506 -55.8034 32.7289 37.7227 178.748 -42.8378 -33.8635 -55.9278 146.656 68.8336 -130.617 -8.22535 5.99971 3.10502 0.0462048 0.000533403 0.662642 16.3894 37.8507 -13.3189 -0.345766 -0.0990913 -0.127039 34.076 31.3783 -29.4747 -2.99419e-015 -5.96354e-016 7.95139e-016 -93.8091 -16.4672 -48.9456 -70.1619 55.6014 -52.2118 14.3771 16.5068 -12.7974 39.4475 6.23444 -12.258 105.946 -33.8789 114.872 29.8776 37.1702 48.9712 14.9386 29.5652 1.55858 33.7191 6.13274 -32.7533 -43.5433 34.9808 104.556 -15.1415 -4.88842 -5.03991 -1.80353e-010 1.55988e-007 -4.8394e-009 
6.00018 102.18 -54.8411 31.2521 34.9615 179.674 -34.5576 -38.5492 -60.3163 178.824 72.2874 -170.373 -5.49754 2.80638 0.984923 0.0462048 0.000533403 0.662642 15.9626 34.3338 -13.1352 -0.326387 -0.0906994 -0.121051 34.2742 32.3576 -30.1613 -2.30777e-015 9.93923e-017 -7.95139e-016 -94.1564 -17.2753 -50.0087 -73.3863 56.647 -46.8369 16.7698 15.3884 -14.4722 38.5118 7.09334 -12.863 106.982 -33.823 114.826 31.6912 39.072 49.0774 14.3243 29.0639 1.36342 32.4291 3.0538 -31.5962 -44.9034 34.0883 104.982 -15.4827 -5.64885 -5.72316 -1.80352e-010 1.55988e-007 -4.8394e-009 
5.57293 102.017 -53.7134 29.4296 31.9096 -179.749 -24.5879 -42.4188 -62.1931 -145.572 71.4202 145.889 -2.73529 -0.640672 -0.757658 0.0462048 0.000533403 0.662642 15.0781 31.0598 -12.5611 -0.317066 -0.0815668 -0.104936 33.774 33.2644 -30.0232 1.84924e-015 3.10601e-017 7.95139e-016 -95.003 -19.7469 -52.044 -76.8077 57.9083 -41.3653 21.3968 18.237 -15.5746 35.1683 10.8849 -11.6716 112.526 -33.0933 116.637 33.9926 41.5593 49.284 16.7128 25.6883 2.76983 30.7316 0.299817 -30.4401 -45.0558 32.8051 104.162 -15.6409 -6.1291 -5.94557 -1.80355e-010 1.55988e-007 -4.83939e-009 
5.20195 102.003 -52.5737 27.2739 28.6077 -179.579 -13.7589 -45.0882 -61.437 -120.484 66.1925 111.908 1.12315 -3.9052 -1.90129 0.0462048 0.000533403 0.662642 13.7534 28.0246 -11.6324 -0.299279 -0.0730654 -0.0987659 32.5555 34.1288 -29.0556 -2.842e-015 2.23633e-016 -7.95139e-016 -96.5267 -23.651 -55.0407 -80.5153 59.4223 -35.8023 26.5918 22.6237 -16.0878 31.9836 13.6739 -10.3871 116.653 -31.4096 116.213 36.7445 44.5178 49.369 19.9109 21.4587 5.33003 28.7671 -2.20607 -29.3175 -44.495 31.1438 102.432 -15.7319 -6.34828 -5.85805 -1.8035e-010 1.55988e-007 -4.8394e-009 
